<?xml version="1.0" encoding="UTF-8"?>
<svg xmlns="http://www.w3.org/2000/svg" xmlns:xlink="http://www.w3.org/1999/xlink" width="2201" height="2138" viewBox="0 0 2201 2138">

<path fill="none" stroke-width="5.6693" stroke-linecap="butt" stroke-linejoin="miter" stroke="rgb(0%, 0%, 0%)" stroke-opacity="1" stroke-miterlimit="22.9256" d="M 8.59375 21368.710938 L 22004.21875 21368.710938 L 22004.21875 5.625 L 8.59375 5.625 Z M 8.59375 21368.710938 " transform="matrix(0.1, 0, 0, -0.1, 0, 2138)"/>
<path fill-rule="nonzero" fill="rgb(6.272888%, 5.880737%, 5.880737%)" fill-opacity="1" d="M 1066.800781 384.398438 L 1135.121094 384.398438 C 1211.898438 388.890625 1288.019531 406.628906 1358.21875 438.230469 C 1478.5 491.480469 1581.03125 583.570312 1647.289062 697.148438 C 1684.761719 761 1710.921875 831.519531 1723.78125 904.460938 C 1728.691406 929.699219 1730.929688 955.351562 1733.070312 980.96875 L 1733.070312 1051.980469 C 1729.011719 1117.039062 1715.820312 1181.660156 1692.390625 1242.558594 C 1668.820312 1304.300781 1635.570312 1362.390625 1593.929688 1413.726562 C 1607.199219 1413.621094 1620.488281 1413.691406 1633.761719 1413.671875 C 1633.878906 1527.164062 1633.789062 1640.65625 1633.789062 1754.132812 C 1278.421875 1754.1875 923.03125 1754.167969 567.660156 1754.148438 C 567.644531 1640.65625 567.644531 1527.164062 567.660156 1413.691406 C 581.140625 1413.691406 594.636719 1413.585938 608.117188 1413.761719 C 549.761719 1341.839844 507.859375 1256.6875 486.050781 1166.695312 C 452.664062 1029.699219 466.285156 881.5 525.492188 753.390625 C 557.707031 682.691406 603.3125 618.179688 658.871094 563.890625 C 720.089844 504 793.511719 456.578125 873.496094 425.878906 C 935.183594 401.820312 1000.769531 388.339844 1066.800781 384.398438 Z M 959.558594 426.199219 C 901.871094 439.921875 846.207031 462.25 795.066406 492.300781 C 670.816406 564.550781 573.789062 682.398438 527.273438 818.429688 C 480.757812 952.191406 483.222656 1102.351562 534.257812 1234.460938 C 558.578125 1298.117188 593.953125 1357.46875 637.972656 1409.464844 C 639.667969 1411.035156 641.011719 1413.847656 643.71875 1413.636719 C 654.175781 1413.761719 664.636719 1413.496094 675.09375 1413.761719 C 593.78125 1327.015625 540.210938 1214.621094 524.359375 1096.769531 C 515.628906 1033.351562 517.390625 968.5 529.492188 905.640625 C 543.652344 832.359375 572.09375 761.859375 612.953125 699.378906 C 683.476562 590.429688 791.46875 506.179688 914.597656 464.960938 C 1060.921875 414.96875 1227.261719 426.671875 1364.78125 497.558594 C 1482.460938 557.121094 1578.601562 658.058594 1632.238281 778.550781 C 1699.78125 927.238281 1700 1104.679688 1632.960938 1253.578125 C 1606.871094 1312.367188 1570.871094 1366.789062 1526.921875 1413.761719 C 1537.320312 1413.496094 1547.75 1413.761719 1558.191406 1413.636719 C 1560.949219 1413.917969 1562.308594 1411.070312 1564.039062 1409.445312 C 1607.78125 1357.765625 1643.03125 1298.835938 1667.300781 1235.59375 C 1725.441406 1086.449219 1721.011719 914.128906 1654.851562 768.320312 C 1598.960938 642.859375 1498.910156 537.699219 1376.410156 475.609375 C 1249.28125 410.078125 1098.488281 392.710938 959.558594 426.199219 Z M 1091 458.398438 C 989.679688 459.878906 888.96875 489.890625 803.410156 544.230469 C 686.511719 617.558594 598.546875 735.679688 562.5625 868.988281 C 545.207031 932.171875 539.253906 998.429688 544.753906 1063.710938 C 555.175781 1194.789062 614.191406 1321.726562 708.425781 1413.464844 C 780.46875 1413.917969 852.542969 1413.53125 924.585938 1413.65625 C 1114.261719 1413.53125 1303.929688 1413.917969 1493.570312 1413.464844 C 1500.171875 1408.207031 1505.371094 1401.363281 1511.410156 1395.496094 C 1559.308594 1343.464844 1597.410156 1282.40625 1622.570312 1216.300781 C 1651.378906 1141.308594 1663.339844 1059.980469 1658.011719 979.851562 C 1652.628906 895.660156 1627.789062 812.71875 1585.648438 739.609375 C 1518.78125 621.890625 1407.558594 530.089844 1279.050781 487.351562 C 1218.691406 466.859375 1154.710938 457.191406 1091 458.398438 Z M 605.285156 1447.320312 C 605.285156 1538.375 605.285156 1629.429688 605.285156 1720.488281 C 935.570312 1720.503906 1265.851562 1720.488281 1596.128906 1720.503906 C 1596.171875 1629.429688 1596.171875 1538.375 1596.128906 1447.300781 C 1265.851562 1447.300781 935.570312 1447.300781 605.285156 1447.320312 "/>
<path fill-rule="nonzero" fill="rgb(6.272888%, 5.880737%, 5.880737%)" fill-opacity="1" d="M 1108.550781 629.859375 C 1173.429688 595.691406 1238.210938 561.308594 1303.089844 527.101562 C 1287.121094 573.699219 1281.339844 623.609375 1285.269531 672.691406 C 1290.628906 744.121094 1314.761719 812.980469 1347.839844 876.101562 C 1371.171875 920.589844 1399.300781 962.53125 1431.390625 1001.148438 C 1431.390625 1001.800781 1431.359375 1003.070312 1431.359375 1003.71875 C 1445.289062 1012.148438 1458.890625 1021.160156 1473.050781 1029.261719 C 1457.199219 1039.011719 1441.011719 1048.28125 1425.371094 1058.351562 C 1438.148438 1066.578125 1450.949219 1074.820312 1463.710938 1083.089844 C 1463.550781 1115.199219 1463.941406 1147.3125 1463.5 1179.421875 C 1350.660156 1247.433594 1238.121094 1315.980469 1125.378906 1384.164062 C 968.429688 1295.027344 811.6875 1205.507812 654.613281 1116.578125 C 653.878906 1084.578125 654.003906 1052.539062 653.703125 1020.53125 C 705.753906 987.011719 757.453125 953 809.59375 919.609375 C 796.375 894.839844 783.085938 869.988281 772.871094 843.800781 C 760.878906 814.269531 750.628906 783.808594 745.476562 752.269531 C 860.3125 686.621094 975.167969 620.96875 1090.039062 555.371094 C 1094.019531 580.691406 1102.160156 605.101562 1108.550781 629.859375 Z M 979.273438 706.019531 C 974.503906 708.730469 968.445312 710.398438 966.492188 716.148438 C 938.1875 762.359375 923.886719 817.46875 929.074219 871.628906 C 934.207031 931.148438 959.28125 987.199219 992.105469 1036.480469 C 1028 1089.570312 1072.300781 1136.960938 1122.238281 1177.117188 C 1222.878906 1118.171875 1323.558594 1059.28125 1424.179688 1000.328125 C 1399.28125 969.460938 1375.890625 937.261719 1356 902.921875 C 1313.808594 831.300781 1285.140625 750.71875 1279.488281 667.429688 C 1276.890625 624.789062 1279.398438 581.300781 1291.800781 540.21875 C 1187.628906 595.488281 1083.441406 650.761719 979.273438 706.019531 Z M 758.503906 758.46875 C 765.625 808.558594 783.609375 856.578125 807.671875 900.910156 C 847.078125 973.019531 900.699219 1036.421875 959.472656 1093.480469 C 1011.148438 1143.210938 1066.75 1188.972656 1126.148438 1229.222656 C 1238.730469 1162.695312 1351.179688 1095.878906 1463.730469 1029.28125 C 1451.300781 1021.53125 1438.828125 1013.828125 1426.359375 1006.148438 C 1325.359375 1065.53125 1224.28125 1124.808594 1123.269531 1184.191406 C 1093.660156 1161.265625 1065.019531 1136.910156 1039.179688 1109.738281 C 996.15625 1064.898438 959.507812 1012.609375 939.375 953.421875 C 912.171875 876.121094 918.230469 787.019531 959.089844 715.570312 C 961.199219 712.550781 962.40625 708.53125 965.773438 706.628906 C 1011.78125 681.710938 1057.898438 656.988281 1103.851562 632 C 1097.921875 609.480469 1092.140625 586.921875 1086.269531 564.378906 C 977.019531 629.089844 867.769531 693.800781 758.503906 758.46875 Z M 662.714844 1021.511719 C 816.628906 1109.699219 970.609375 1197.808594 1124.53125 1286.019531 C 1235.519531 1219.84375 1346.480469 1153.632812 1457.429688 1087.390625 C 1444.660156 1079.320312 1431.929688 1071.199219 1419.128906 1063.191406 C 1321.851562 1122.46875 1224.570312 1181.746094 1127.25 1240.988281 C 1045.640625 1186.199219 969.722656 1122.5 903.964844 1049.328125 C 870.039062 1010.949219 838.246094 970.300781 813.101562 925.550781 C 763.058594 957.660156 712.824219 989.488281 662.714844 1021.511719 "/>
<path fill-rule="nonzero" fill="rgb(6.272888%, 5.880737%, 5.880737%)" fill-opacity="1" d="M 1160.878906 842.398438 C 1160.828125 824.820312 1177.828125 809.699219 1195.261719 812.410156 C 1210.609375 815.179688 1222.078125 827.671875 1228.921875 841.019531 C 1233.089844 849.320312 1235.449219 859.128906 1232.621094 868.238281 C 1228.378906 884.058594 1210.660156 894.359375 1194.769531 890.839844 C 1201.679688 901.230469 1208.339844 911.828125 1215.160156 922.28125 C 1206.660156 927.710938 1198.230469 933.230469 1189.738281 938.660156 C 1170.109375 908.371094 1150.558594 878 1130.96875 847.679688 C 1138.859375 842.609375 1146.71875 837.511719 1154.589844 832.410156 C 1156.691406 835.730469 1158.800781 839.050781 1160.878906 842.398438 Z M 1179.890625 840.339844 C 1173.761719 843.03125 1171.300781 850.800781 1173.820312 856.820312 C 1176.710938 863.550781 1180.628906 870.921875 1187.839844 873.78125 C 1194.578125 876.378906 1203.289062 872.089844 1204.269531 864.648438 C 1204.898438 857.980469 1200.789062 852.089844 1197.269531 846.820312 C 1193.558594 841.410156 1186.351562 837.230469 1179.890625 840.339844 "/>
<path fill-rule="nonzero" fill="rgb(6.272888%, 5.880737%, 5.880737%)" fill-opacity="1" d="M 1239.78125 834.269531 C 1248.761719 828.429688 1257.75 822.640625 1266.738281 816.839844 C 1272.148438 825.269531 1277.621094 833.671875 1283.011719 842.121094 C 1274.058594 847.941406 1265.078125 853.71875 1256.109375 859.511719 C 1250.660156 851.101562 1245.25 842.660156 1239.78125 834.269531 "/>
<path fill-rule="nonzero" fill="rgb(6.272888%, 5.880737%, 5.880737%)" fill-opacity="1" d="M 1067.871094 852.019531 C 1076.28125 847.011719 1085.449219 841.421875 1095.679688 842.660156 C 1107.988281 844.101562 1117.351562 854.75 1120.511719 866.238281 C 1123.320312 877.171875 1118.550781 888.789062 1110.46875 896.269531 C 1119.789062 892.96875 1129.46875 896.761719 1137.710938 901.171875 C 1147.121094 906.570312 1156.511719 912.019531 1165.960938 917.390625 C 1155.398438 924.238281 1144.828125 931.070312 1134.25 937.890625 C 1121.730469 931.238281 1109.539062 923.921875 1096.828125 917.660156 C 1091.511719 914.511719 1085.378906 916.769531 1080.71875 919.941406 C 1088.75 932.269531 1096.730469 944.628906 1104.660156 957.011719 C 1095.28125 963.070312 1085.921875 969.171875 1076.511719 975.171875 C 1056.898438 944.898438 1037.449219 914.511719 1017.75 884.289062 C 1034.410156 873.460938 1051 862.5 1067.871094 852.019531 Z M 1057.738281 884.640625 C 1062 890.558594 1065.75 896.789062 1069.730469 902.890625 C 1076.699219 898.429688 1084.140625 894.308594 1089.359375 887.75 C 1094.671875 880.871094 1086.859375 869.328125 1078.449219 872.28125 C 1070.898438 875.109375 1064.25 879.980469 1057.738281 884.640625 "/>
<path fill-rule="nonzero" fill="rgb(6.272888%, 5.880737%, 5.880737%)" fill-opacity="1" d="M 1448.28125 1487.84375 C 1461.878906 1484.28125 1478.5 1485.730469 1488.238281 1496.976562 C 1498.738281 1509.285156 1500.519531 1526.273438 1502.109375 1541.761719 C 1492.570312 1542.863281 1483.019531 1543.875 1473.488281 1544.957031 C 1472.550781 1538.0625 1471.851562 1530.535156 1467.339844 1524.914062 C 1463.589844 1520.25 1455.429688 1519.152344 1451.351562 1523.917969 C 1446.878906 1530.167969 1446.089844 1540.066406 1451.800781 1545.828125 C 1457.738281 1550.230469 1465.039062 1552.257812 1471.53125 1555.730469 C 1483.789062 1561.457031 1495.019531 1570.730469 1499.839844 1583.738281 C 1507.210938 1603.34375 1506.75 1625.433594 1501.089844 1645.425781 C 1497.058594 1659.53125 1488.070312 1674.234375 1472.96875 1678.09375 C 1457.148438 1682.023438 1437.101562 1678.496094 1428.25 1663.460938 C 1419.75 1648.65625 1416.898438 1631.386719 1415.941406 1614.554688 C 1425.558594 1613.402344 1435.199219 1612.335938 1444.800781 1611.078125 C 1446.011719 1620.613281 1446.410156 1631.160156 1453.109375 1638.738281 C 1457.710938 1644.203125 1467.410156 1644.308594 1471.5 1638.195312 C 1477.140625 1629.902344 1477.308594 1617.960938 1471.738281 1609.597656 C 1466.371094 1602.734375 1457.511719 1600.445312 1450.179688 1596.359375 C 1437.730469 1590.109375 1427.289062 1579.285156 1423.269531 1565.769531 C 1417.96875 1548.117188 1418.378906 1528.578125 1424.910156 1511.3125 C 1428.929688 1500.730469 1436.941406 1490.8125 1448.28125 1487.84375 "/>
<path fill-rule="nonzero" fill="rgb(6.272888%, 5.880737%, 5.880737%)" fill-opacity="1" d="M 647.382812 1676.398438 C 659.867188 1614.011719 672.039062 1551.59375 684.523438 1489.207031 C 695.558594 1489.242188 706.574219 1489.222656 717.609375 1489.222656 C 730.023438 1551.609375 742.300781 1614.011719 754.730469 1676.398438 C 744.113281 1676.363281 733.5 1676.398438 722.867188 1676.382812 C 721.296875 1666.078125 719.707031 1655.796875 718.027344 1645.511719 C 706.4375 1645.546875 694.824219 1645.527344 683.230469 1645.527344 C 681.675781 1655.8125 680 1666.078125 678.5 1676.382812 C 668.128906 1676.382812 657.757812 1676.382812 647.382812 1676.398438 Z M 689.796875 1605.144531 C 697.078125 1605.109375 704.359375 1605.125 711.640625 1605.125 C 708.179688 1582.550781 704.21875 1560.078125 700.847656 1537.503906 C 696.921875 1560.007812 693.53125 1582.601562 689.796875 1605.144531 "/>
<path fill-rule="nonzero" fill="rgb(6.272888%, 5.880737%, 5.880737%)" fill-opacity="1" d="M 764.664062 1676.382812 C 764.769531 1613.996094 764.664062 1551.609375 764.71875 1489.222656 C 774.828125 1489.242188 784.953125 1489.222656 795.066406 1489.242188 C 795.101562 1512.777344 794.960938 1536.3125 795.136719 1559.867188 C 805.976562 1536.382812 816.472656 1512.761719 827.15625 1489.222656 C 840.617188 1489.242188 854.0625 1489.222656 867.523438 1489.242188 C 855.601562 1512.761719 843.65625 1536.277344 831.628906 1559.765625 C 844.109375 1598.648438 856.628906 1637.53125 869.183594 1676.398438 C 856.648438 1676.3125 844.109375 1676.519531 831.574219 1676.277344 C 824.800781 1650.644531 818.007812 1625.011719 810.796875 1599.519531 C 805.664062 1609.960938 800.074219 1620.210938 795.238281 1630.808594 C 794.820312 1645.984375 795.136719 1661.210938 795.101562 1676.398438 C 784.953125 1676.363281 774.808594 1676.382812 764.664062 1676.382812 "/>
<path fill-rule="nonzero" fill="rgb(6.272888%, 5.880737%, 5.880737%)" fill-opacity="1" d="M 879.484375 1489.222656 C 889.578125 1489.242188 899.671875 1489.242188 909.78125 1489.222656 C 909.8125 1527.183594 909.746094 1565.125 909.796875 1603.082031 C 909.972656 1612.878906 910.671875 1623.6875 917.097656 1631.632812 C 921.636719 1637.324219 931.257812 1637.566406 935.988281 1631.980469 C 942.429688 1624.644531 943.234375 1614.273438 943.511719 1604.96875 C 943.636719 1566.382812 943.511719 1527.8125 943.566406 1489.242188 C 953.691406 1489.222656 963.800781 1489.222656 973.929688 1489.242188 C 973.945312 1516.707031 973.929688 1544.1875 973.945312 1571.671875 C 973.824219 1593.339844 974.890625 1615.289062 970.246094 1636.625 C 967.242188 1649.300781 962.300781 1662.1875 952.855469 1671.476562 C 941.960938 1681.253906 925.949219 1680.816406 912.554688 1677.550781 C 903.878906 1675.664062 896.910156 1669.222656 892.789062 1661.574219 C 881.652344 1643.015625 880.097656 1620.769531 879.503906 1599.644531 C 879.449219 1562.835938 879.484375 1526.03125 879.484375 1489.222656 "/>
<path fill-rule="nonzero" fill="rgb(6.272888%, 5.880737%, 5.880737%)" fill-opacity="1" d="M 994.375 1489.242188 C 1003.839844 1489.222656 1013.320312 1489.222656 1022.78125 1489.242188 C 1035.160156 1523.828125 1047.648438 1558.402344 1059.96875 1593.027344 C 1060.101562 1558.4375 1059.96875 1523.828125 1060.03125 1489.242188 C 1069.558594 1489.222656 1079.089844 1489.242188 1088.628906 1489.222656 C 1088.660156 1551.628906 1088.570312 1614.011719 1088.660156 1676.417969 C 1079.089844 1676.347656 1069.53125 1676.417969 1059.960938 1676.363281 C 1047.75 1642.054688 1035.269531 1607.832031 1023.058594 1573.503906 C 1022.890625 1607.796875 1023.011719 1642.089844 1022.988281 1676.382812 C 1013.441406 1676.382812 1003.910156 1676.382812 994.359375 1676.382812 C 994.375 1613.996094 994.359375 1551.628906 994.375 1489.242188 "/>
<path fill-rule="nonzero" fill="rgb(6.272888%, 5.880737%, 5.880737%)" fill-opacity="1" d="M 1102.089844 1489.242188 C 1132.941406 1489.222656 1163.78125 1489.257812 1194.628906 1489.222656 C 1194.648438 1504.640625 1194.679688 1520.058594 1194.628906 1535.476562 C 1184.261719 1535.425781 1173.890625 1535.460938 1163.53125 1535.441406 C 1163.550781 1582.425781 1163.480469 1629.414062 1163.570312 1676.398438 C 1153.421875 1676.363281 1143.28125 1676.398438 1133.128906 1676.382812 C 1133.21875 1629.394531 1133.148438 1582.425781 1133.171875 1535.441406 C 1122.808594 1535.441406 1112.441406 1535.441406 1102.089844 1535.441406 C 1102.070312 1520.039062 1102.070312 1504.640625 1102.089844 1489.242188 "/>
<path fill-rule="nonzero" fill="rgb(6.272888%, 5.880737%, 5.880737%)" fill-opacity="1" d="M 1189.21875 1676.382812 C 1201.679688 1614.03125 1213.941406 1551.628906 1226.320312 1489.242188 C 1237.351562 1489.207031 1248.410156 1489.242188 1259.441406 1489.222656 C 1271.871094 1551.609375 1284.148438 1614.03125 1296.558594 1676.417969 C 1285.949219 1676.347656 1275.328125 1676.398438 1264.730469 1676.382812 C 1263.179688 1666.097656 1261.46875 1655.832031 1259.949219 1645.527344 C 1248.300781 1645.546875 1236.640625 1645.476562 1224.988281 1645.5625 C 1223.578125 1655.867188 1221.828125 1666.097656 1220.328125 1676.382812 C 1209.960938 1676.382812 1199.589844 1676.382812 1189.21875 1676.382812 Z M 1231.628906 1605.144531 C 1238.929688 1605.109375 1246.238281 1605.109375 1253.578125 1605.144531 C 1249.839844 1582.707031 1246.351562 1560.21875 1242.558594 1537.78125 C 1238.789062 1560.21875 1235.351562 1582.707031 1231.628906 1605.144531 "/>
<path fill-rule="nonzero" fill="rgb(6.272888%, 5.880737%, 5.880737%)" fill-opacity="1" d="M 1306.601562 1489.242188 C 1316.070312 1489.222656 1325.550781 1489.222656 1335.011719 1489.242188 C 1347.371094 1523.863281 1359.890625 1558.417969 1372.179688 1593.0625 C 1372.378906 1558.4375 1372.199219 1523.828125 1372.269531 1489.222656 C 1381.800781 1489.242188 1391.320312 1489.222656 1400.871094 1489.242188 C 1400.890625 1551.628906 1400.820312 1614.011719 1400.910156 1676.398438 C 1391.300781 1676.347656 1381.71875 1676.417969 1372.128906 1676.347656 C 1360.03125 1642.035156 1347.429688 1607.902344 1335.359375 1573.574219 C 1335.011719 1607.832031 1335.289062 1642.105469 1335.21875 1676.382812 C 1325.671875 1676.382812 1316.121094 1676.382812 1306.570312 1676.382812 C 1306.621094 1613.996094 1306.570312 1551.628906 1306.601562 1489.242188 "/>
<path fill-rule="nonzero" fill="rgb(6.272888%, 5.880737%, 5.880737%)" fill-opacity="1" d="M 1522.011719 1489.222656 C 1532.140625 1489.242188 1542.269531 1489.242188 1552.410156 1489.222656 C 1552.460938 1551.609375 1552.359375 1613.996094 1552.460938 1676.382812 C 1542.300781 1676.398438 1532.121094 1676.347656 1521.980469 1676.417969 C 1522.058594 1614.011719 1521.980469 1551.628906 1522.011719 1489.222656 "/>
<path fill-rule="nonzero" fill="rgb(100%, 100%, 100%)" fill-opacity="1" d="M 959.558594 426.199219 C 1098.488281 392.710938 1249.28125 410.078125 1376.410156 475.609375 C 1498.910156 537.699219 1598.960938 642.859375 1654.851562 768.320312 C 1721.011719 914.128906 1725.441406 1086.449219 1667.300781 1235.59375 C 1643.03125 1298.835938 1607.78125 1357.765625 1564.039062 1409.445312 C 1562.308594 1411.070312 1560.949219 1413.917969 1558.191406 1413.636719 C 1547.75 1413.761719 1537.320312 1413.496094 1526.921875 1413.761719 C 1570.871094 1366.789062 1606.871094 1312.367188 1632.960938 1253.578125 C 1700 1104.679688 1699.78125 927.238281 1632.238281 778.550781 C 1578.601562 658.058594 1482.460938 557.121094 1364.78125 497.558594 C 1227.261719 426.671875 1060.921875 414.96875 914.597656 464.960938 C 791.46875 506.179688 683.476562 590.429688 612.953125 699.378906 C 572.09375 761.859375 543.652344 832.359375 529.492188 905.640625 C 517.390625 968.5 515.628906 1033.351562 524.359375 1096.769531 C 540.210938 1214.621094 593.78125 1327.015625 675.09375 1413.761719 C 664.636719 1413.496094 654.175781 1413.761719 643.71875 1413.636719 C 641.011719 1413.847656 639.667969 1411.035156 637.972656 1409.464844 C 593.953125 1357.46875 558.578125 1298.117188 534.257812 1234.460938 C 483.222656 1102.351562 480.757812 952.191406 527.273438 818.429688 C 573.789062 682.398438 670.816406 564.550781 795.066406 492.300781 C 846.207031 462.25 901.871094 439.921875 959.558594 426.199219 "/>
<path fill-rule="nonzero" fill="rgb(100%, 100%, 100%)" fill-opacity="1" d="M 1091 458.398438 C 1154.710938 457.191406 1218.691406 466.859375 1279.050781 487.351562 C 1407.558594 530.089844 1518.78125 621.890625 1585.648438 739.609375 C 1627.789062 812.71875 1652.628906 895.660156 1658.011719 979.851562 C 1663.339844 1059.980469 1651.378906 1141.308594 1622.570312 1216.300781 C 1597.410156 1282.40625 1559.308594 1343.464844 1511.410156 1395.496094 C 1505.371094 1401.363281 1500.171875 1408.207031 1493.570312 1413.464844 C 1303.929688 1413.917969 1114.261719 1413.53125 924.585938 1413.65625 C 852.542969 1413.53125 780.46875 1413.917969 708.425781 1413.464844 C 614.191406 1321.726562 555.175781 1194.789062 544.753906 1063.710938 C 539.253906 998.429688 545.207031 932.171875 562.5625 868.988281 C 598.546875 735.679688 686.511719 617.558594 803.410156 544.230469 C 888.96875 489.890625 989.679688 459.878906 1091 458.398438 Z M 1108.550781 629.859375 C 1102.160156 605.101562 1094.019531 580.691406 1090.039062 555.371094 C 975.167969 620.96875 860.3125 686.621094 745.476562 752.269531 C 750.628906 783.808594 760.878906 814.269531 772.871094 843.800781 C 783.085938 869.988281 796.375 894.839844 809.59375 919.609375 C 757.453125 953 705.753906 987.011719 653.703125 1020.53125 C 654.003906 1052.539062 653.878906 1084.578125 654.613281 1116.578125 C 811.6875 1205.507812 968.429688 1295.027344 1125.378906 1384.164062 C 1238.121094 1315.980469 1350.660156 1247.433594 1463.5 1179.421875 C 1463.941406 1147.3125 1463.550781 1115.199219 1463.710938 1083.089844 C 1450.949219 1074.820312 1438.148438 1066.578125 1425.371094 1058.351562 C 1441.011719 1048.28125 1457.199219 1039.011719 1473.050781 1029.261719 C 1458.890625 1021.160156 1445.289062 1012.148438 1431.359375 1003.71875 C 1431.359375 1003.070312 1431.390625 1001.800781 1431.390625 1001.148438 C 1399.300781 962.53125 1371.171875 920.589844 1347.839844 876.101562 C 1314.761719 812.980469 1290.628906 744.121094 1285.269531 672.691406 C 1281.339844 623.609375 1287.121094 573.699219 1303.089844 527.101562 C 1238.210938 561.308594 1173.429688 595.691406 1108.550781 629.859375 "/>
<path fill-rule="nonzero" fill="rgb(100%, 100%, 100%)" fill-opacity="1" d="M 979.273438 706.019531 C 1083.441406 650.761719 1187.628906 595.488281 1291.800781 540.21875 C 1279.398438 581.300781 1276.890625 624.789062 1279.488281 667.429688 C 1285.140625 750.71875 1313.808594 831.300781 1356 902.921875 C 1375.890625 937.261719 1399.28125 969.460938 1424.179688 1000.328125 C 1323.558594 1059.28125 1222.878906 1118.171875 1122.238281 1177.117188 C 1072.300781 1136.960938 1028 1089.570312 992.105469 1036.480469 C 959.28125 987.199219 934.207031 931.148438 929.074219 871.628906 C 923.886719 817.46875 938.1875 762.359375 966.492188 716.148438 C 968.445312 710.398438 974.503906 708.730469 979.273438 706.019531 Z M 1160.878906 842.398438 C 1158.800781 839.050781 1156.691406 835.730469 1154.589844 832.410156 C 1146.71875 837.511719 1138.859375 842.609375 1130.96875 847.679688 C 1150.558594 878 1170.109375 908.371094 1189.738281 938.660156 C 1198.230469 933.230469 1206.660156 927.710938 1215.160156 922.28125 C 1208.339844 911.828125 1201.679688 901.230469 1194.769531 890.839844 C 1210.660156 894.359375 1228.378906 884.058594 1232.621094 868.238281 C 1235.449219 859.128906 1233.089844 849.320312 1228.921875 841.019531 C 1222.078125 827.671875 1210.609375 815.179688 1195.261719 812.410156 C 1177.828125 809.699219 1160.828125 824.820312 1160.878906 842.398438 Z M 1239.78125 834.269531 C 1245.25 842.660156 1250.660156 851.101562 1256.109375 859.511719 C 1265.078125 853.71875 1274.058594 847.941406 1283.011719 842.121094 C 1277.621094 833.671875 1272.148438 825.269531 1266.738281 816.839844 C 1257.75 822.640625 1248.761719 828.429688 1239.78125 834.269531 Z M 1067.871094 852.019531 C 1051 862.5 1034.410156 873.460938 1017.75 884.289062 C 1037.449219 914.511719 1056.898438 944.898438 1076.511719 975.171875 C 1085.921875 969.171875 1095.28125 963.070312 1104.660156 957.011719 C 1096.730469 944.628906 1088.75 932.269531 1080.71875 919.941406 C 1085.378906 916.769531 1091.511719 914.511719 1096.828125 917.660156 C 1109.539062 923.921875 1121.730469 931.238281 1134.25 937.890625 C 1144.828125 931.070312 1155.398438 924.238281 1165.960938 917.390625 C 1156.511719 912.019531 1147.121094 906.570312 1137.710938 901.171875 C 1129.46875 896.761719 1119.789062 892.96875 1110.46875 896.269531 C 1118.550781 888.789062 1123.320312 877.171875 1120.511719 866.238281 C 1117.351562 854.75 1107.988281 844.101562 1095.679688 842.660156 C 1085.449219 841.421875 1076.28125 847.011719 1067.871094 852.019531 "/>
<path fill-rule="nonzero" fill="rgb(100%, 100%, 100%)" fill-opacity="1" d="M 758.503906 758.46875 C 867.769531 693.800781 977.019531 629.089844 1086.269531 564.378906 C 1092.140625 586.921875 1097.921875 609.480469 1103.851562 632 C 1057.898438 656.988281 1011.78125 681.710938 965.773438 706.628906 C 962.40625 708.53125 961.199219 712.550781 959.089844 715.570312 C 918.230469 787.019531 912.171875 876.121094 939.375 953.421875 C 959.507812 1012.609375 996.15625 1064.898438 1039.179688 1109.738281 C 1065.019531 1136.910156 1093.660156 1161.265625 1123.269531 1184.191406 C 1224.28125 1124.808594 1325.359375 1065.53125 1426.359375 1006.148438 C 1438.828125 1013.828125 1451.300781 1021.53125 1463.730469 1029.28125 C 1351.179688 1095.878906 1238.730469 1162.695312 1126.148438 1229.222656 C 1066.75 1188.972656 1011.148438 1143.210938 959.472656 1093.480469 C 900.699219 1036.421875 847.078125 973.019531 807.671875 900.910156 C 783.609375 856.578125 765.625 808.558594 758.503906 758.46875 "/>
<path fill-rule="nonzero" fill="rgb(100%, 100%, 100%)" fill-opacity="1" d="M 1179.890625 840.339844 C 1186.351562 837.230469 1193.558594 841.410156 1197.269531 846.820312 C 1200.789062 852.089844 1204.898438 857.980469 1204.269531 864.648438 C 1203.289062 872.089844 1194.578125 876.378906 1187.839844 873.78125 C 1180.628906 870.921875 1176.710938 863.550781 1173.820312 856.820312 C 1171.300781 850.800781 1173.761719 843.03125 1179.890625 840.339844 "/>
<path fill-rule="nonzero" fill="rgb(100%, 100%, 100%)" fill-opacity="1" d="M 1057.738281 884.640625 C 1064.25 879.980469 1070.898438 875.109375 1078.449219 872.28125 C 1086.859375 869.328125 1094.671875 880.871094 1089.359375 887.75 C 1084.140625 894.308594 1076.699219 898.429688 1069.730469 902.890625 C 1065.75 896.789062 1062 890.558594 1057.738281 884.640625 "/>
<path fill-rule="nonzero" fill="rgb(100%, 100%, 100%)" fill-opacity="1" d="M 662.714844 1021.511719 C 712.824219 989.488281 763.058594 957.660156 813.101562 925.550781 C 838.246094 970.300781 870.039062 1010.949219 903.964844 1049.328125 C 969.722656 1122.5 1045.640625 1186.199219 1127.25 1240.988281 C 1224.570312 1181.746094 1321.851562 1122.46875 1419.128906 1063.191406 C 1431.929688 1071.199219 1444.660156 1079.320312 1457.429688 1087.390625 C 1346.480469 1153.632812 1235.519531 1219.84375 1124.53125 1286.019531 C 970.609375 1197.808594 816.628906 1109.699219 662.714844 1021.511719 "/>
<path fill-rule="nonzero" fill="rgb(100%, 100%, 100%)" fill-opacity="1" d="M 605.285156 1447.320312 C 935.570312 1447.300781 1265.851562 1447.300781 1596.128906 1447.300781 C 1596.171875 1538.375 1596.171875 1629.429688 1596.128906 1720.503906 C 1265.851562 1720.488281 935.570312 1720.503906 605.285156 1720.488281 C 605.285156 1629.429688 605.285156 1538.375 605.285156 1447.320312 Z M 1448.28125 1487.84375 C 1436.941406 1490.8125 1428.929688 1500.730469 1424.910156 1511.3125 C 1418.378906 1528.578125 1417.96875 1548.117188 1423.269531 1565.769531 C 1427.289062 1579.285156 1437.730469 1590.109375 1450.179688 1596.359375 C 1457.511719 1600.445312 1466.371094 1602.734375 1471.738281 1609.597656 C 1477.308594 1617.960938 1477.140625 1629.902344 1471.5 1638.195312 C 1467.410156 1644.308594 1457.710938 1644.203125 1453.109375 1638.738281 C 1446.410156 1631.160156 1446.011719 1620.613281 1444.800781 1611.078125 C 1435.199219 1612.335938 1425.558594 1613.402344 1415.941406 1614.554688 C 1416.898438 1631.386719 1419.75 1648.65625 1428.25 1663.460938 C 1437.101562 1678.496094 1457.148438 1682.023438 1472.96875 1678.09375 C 1488.070312 1674.234375 1497.058594 1659.53125 1501.089844 1645.425781 C 1506.75 1625.433594 1507.210938 1603.34375 1499.839844 1583.738281 C 1495.019531 1570.730469 1483.789062 1561.457031 1471.53125 1555.730469 C 1465.039062 1552.257812 1457.738281 1550.230469 1451.800781 1545.828125 C 1446.089844 1540.066406 1446.878906 1530.167969 1451.351562 1523.917969 C 1455.429688 1519.152344 1463.589844 1520.25 1467.339844 1524.914062 C 1471.851562 1530.535156 1472.550781 1538.0625 1473.488281 1544.957031 C 1483.019531 1543.875 1492.570312 1542.863281 1502.109375 1541.761719 C 1500.519531 1526.273438 1498.738281 1509.285156 1488.238281 1496.976562 C 1478.5 1485.730469 1461.878906 1484.28125 1448.28125 1487.84375 Z M 647.382812 1676.398438 C 657.757812 1676.382812 668.128906 1676.382812 678.5 1676.382812 C 680 1666.078125 681.675781 1655.8125 683.230469 1645.527344 C 694.824219 1645.527344 706.4375 1645.546875 718.027344 1645.511719 C 719.707031 1655.796875 721.296875 1666.078125 722.867188 1676.382812 C 733.5 1676.398438 744.113281 1676.363281 754.730469 1676.398438 C 742.300781 1614.011719 730.023438 1551.609375 717.609375 1489.222656 C 706.574219 1489.222656 695.558594 1489.242188 684.523438 1489.207031 C 672.039062 1551.59375 659.867188 1614.011719 647.382812 1676.398438 Z M 764.664062 1676.382812 C 774.808594 1676.382812 784.953125 1676.363281 795.101562 1676.398438 C 795.136719 1661.210938 794.820312 1645.984375 795.238281 1630.808594 C 800.074219 1620.210938 805.664062 1609.960938 810.796875 1599.519531 C 818.007812 1625.011719 824.800781 1650.644531 831.574219 1676.277344 C 844.109375 1676.519531 856.648438 1676.3125 869.183594 1676.398438 C 856.628906 1637.53125 844.109375 1598.648438 831.628906 1559.765625 C 843.65625 1536.277344 855.601562 1512.761719 867.523438 1489.242188 C 854.0625 1489.222656 840.617188 1489.242188 827.15625 1489.222656 C 816.472656 1512.761719 805.976562 1536.382812 795.136719 1559.867188 C 794.960938 1536.3125 795.101562 1512.777344 795.066406 1489.242188 C 784.953125 1489.222656 774.828125 1489.242188 764.71875 1489.222656 C 764.664062 1551.609375 764.769531 1613.996094 764.664062 1676.382812 Z M 879.484375 1489.222656 C 879.484375 1526.03125 879.449219 1562.835938 879.503906 1599.644531 C 880.097656 1620.769531 881.652344 1643.015625 892.789062 1661.574219 C 896.910156 1669.222656 903.878906 1675.664062 912.554688 1677.550781 C 925.949219 1680.816406 941.960938 1681.253906 952.855469 1671.476562 C 962.300781 1662.1875 967.242188 1649.300781 970.246094 1636.625 C 974.890625 1615.289062 973.824219 1593.339844 973.945312 1571.671875 C 973.929688 1544.1875 973.945312 1516.707031 973.929688 1489.242188 C 963.800781 1489.222656 953.691406 1489.222656 943.566406 1489.242188 C 943.511719 1527.8125 943.636719 1566.382812 943.511719 1604.96875 C 943.234375 1614.273438 942.429688 1624.644531 935.988281 1631.980469 C 931.257812 1637.566406 921.636719 1637.324219 917.097656 1631.632812 C 910.671875 1623.6875 909.972656 1612.878906 909.796875 1603.082031 C 909.746094 1565.125 909.8125 1527.183594 909.78125 1489.222656 C 899.671875 1489.242188 889.578125 1489.242188 879.484375 1489.222656 Z M 994.375 1489.242188 C 994.359375 1551.628906 994.375 1613.996094 994.359375 1676.382812 C 1003.910156 1676.382812 1013.441406 1676.382812 1022.988281 1676.382812 C 1023.011719 1642.089844 1022.890625 1607.796875 1023.058594 1573.503906 C 1035.269531 1607.832031 1047.75 1642.054688 1059.960938 1676.363281 C 1069.53125 1676.417969 1079.089844 1676.347656 1088.660156 1676.417969 C 1088.570312 1614.011719 1088.660156 1551.628906 1088.628906 1489.222656 C 1079.089844 1489.242188 1069.558594 1489.222656 1060.03125 1489.242188 C 1059.96875 1523.828125 1060.101562 1558.4375 1059.96875 1593.027344 C 1047.648438 1558.402344 1035.160156 1523.828125 1022.78125 1489.242188 C 1013.320312 1489.222656 1003.839844 1489.222656 994.375 1489.242188 Z M 1102.089844 1489.242188 C 1102.070312 1504.640625 1102.070312 1520.039062 1102.089844 1535.441406 C 1112.441406 1535.441406 1122.808594 1535.441406 1133.171875 1535.441406 C 1133.148438 1582.425781 1133.21875 1629.394531 1133.128906 1676.382812 C 1143.28125 1676.398438 1153.421875 1676.363281 1163.570312 1676.398438 C 1163.480469 1629.414062 1163.550781 1582.425781 1163.53125 1535.441406 C 1173.890625 1535.460938 1184.261719 1535.425781 1194.628906 1535.476562 C 1194.679688 1520.058594 1194.648438 1504.640625 1194.628906 1489.222656 C 1163.78125 1489.257812 1132.941406 1489.222656 1102.089844 1489.242188 Z M 1189.21875 1676.382812 C 1199.589844 1676.382812 1209.960938 1676.382812 1220.328125 1676.382812 C 1221.828125 1666.097656 1223.578125 1655.867188 1224.988281 1645.5625 C 1236.640625 1645.476562 1248.300781 1645.546875 1259.949219 1645.527344 C 1261.46875 1655.832031 1263.179688 1666.097656 1264.730469 1676.382812 C 1275.328125 1676.398438 1285.949219 1676.347656 1296.558594 1676.417969 C 1284.148438 1614.03125 1271.871094 1551.609375 1259.441406 1489.222656 C 1248.410156 1489.242188 1237.351562 1489.207031 1226.320312 1489.242188 C 1213.941406 1551.628906 1201.679688 1614.03125 1189.21875 1676.382812 Z M 1306.601562 1489.242188 C 1306.570312 1551.628906 1306.621094 1613.996094 1306.570312 1676.382812 C 1316.121094 1676.382812 1325.671875 1676.382812 1335.21875 1676.382812 C 1335.289062 1642.105469 1335.011719 1607.832031 1335.359375 1573.574219 C 1347.429688 1607.902344 1360.03125 1642.035156 1372.128906 1676.347656 C 1381.71875 1676.417969 1391.300781 1676.347656 1400.910156 1676.398438 C 1400.820312 1614.011719 1400.890625 1551.628906 1400.871094 1489.242188 C 1391.320312 1489.222656 1381.800781 1489.242188 1372.269531 1489.222656 C 1372.199219 1523.828125 1372.378906 1558.4375 1372.179688 1593.0625 C 1359.890625 1558.417969 1347.371094 1523.863281 1335.011719 1489.242188 C 1325.550781 1489.222656 1316.070312 1489.222656 1306.601562 1489.242188 Z M 1522.011719 1489.222656 C 1521.980469 1551.628906 1522.058594 1614.011719 1521.980469 1676.417969 C 1532.121094 1676.347656 1542.300781 1676.398438 1552.460938 1676.382812 C 1552.359375 1613.996094 1552.460938 1551.609375 1552.410156 1489.222656 C 1542.269531 1489.242188 1532.140625 1489.242188 1522.011719 1489.222656 "/>
<path fill-rule="nonzero" fill="rgb(100%, 100%, 100%)" fill-opacity="1" d="M 689.796875 1605.144531 C 693.53125 1582.601562 696.921875 1560.007812 700.847656 1537.503906 C 704.21875 1560.078125 708.179688 1582.550781 711.640625 1605.125 C 704.359375 1605.125 697.078125 1605.109375 689.796875 1605.144531 "/>
<path fill-rule="nonzero" fill="rgb(100%, 100%, 100%)" fill-opacity="1" d="M 1231.628906 1605.144531 C 1235.351562 1582.707031 1238.789062 1560.21875 1242.558594 1537.78125 C 1246.351562 1560.21875 1249.839844 1582.707031 1253.578125 1605.144531 C 1246.238281 1605.109375 1238.929688 1605.109375 1231.628906 1605.144531 "/>
</svg>
